<mxfile host="app.diagrams.net" agent="Mozilla/5.0 (Windows NT 10.0; Win64; x64) AppleWebKit/537.36 (KHTML, like Gecko) Chrome/128.0.0.0 Safari/537.36" version="24.7.14">
  <diagram name="Страница — 1" id="dUu_zaPNXrHZlKWHduf2">
    <mxGraphModel dx="1050" dy="522" grid="1" gridSize="10" guides="1" tooltips="1" connect="1" arrows="1" fold="1" page="1" pageScale="1" pageWidth="827" pageHeight="1169" math="0" shadow="0">
      <root>
        <mxCell id="0" />
        <mxCell id="1" parent="0" />
        <mxCell id="Vo5U7oYjeB9SJfok_fx1-28" value="" style="rounded=0;whiteSpace=wrap;html=1;" vertex="1" parent="1">
          <mxGeometry x="95" y="500" width="315" height="50" as="geometry" />
        </mxCell>
        <mxCell id="Vo5U7oYjeB9SJfok_fx1-21" value="" style="rounded=0;whiteSpace=wrap;html=1;" vertex="1" parent="1">
          <mxGeometry x="80" y="370" width="250" height="60" as="geometry" />
        </mxCell>
        <mxCell id="Vo5U7oYjeB9SJfok_fx1-18" value="" style="rounded=0;whiteSpace=wrap;html=1;" vertex="1" parent="1">
          <mxGeometry x="90" y="310" width="180" height="10" as="geometry" />
        </mxCell>
        <mxCell id="Vo5U7oYjeB9SJfok_fx1-13" value="" style="rounded=0;whiteSpace=wrap;html=1;" vertex="1" parent="1">
          <mxGeometry x="80" y="150" width="210" height="90" as="geometry" />
        </mxCell>
        <mxCell id="Vo5U7oYjeB9SJfok_fx1-1" value="" style="rounded=0;whiteSpace=wrap;html=1;" vertex="1" parent="1">
          <mxGeometry x="80" y="20" width="210" height="100" as="geometry" />
        </mxCell>
        <mxCell id="Vo5U7oYjeB9SJfok_fx1-2" value="&lt;p style=&quot;line-height: 115%; margin-top: 0pt; margin-bottom: 0pt; text-align: left; direction: ltr; unicode-bidi: embed; word-break: normal; font-size: 14px;&quot;&gt;&lt;font style=&quot;font-size: 14px;&quot;&gt;&lt;span style=&quot;font-family: Arial;&quot;&gt;Лабораторная работа №&lt;/span&gt;&lt;span style=&quot;font-family: Arial;&quot;&gt;1&lt;/span&gt;&lt;/font&gt;&lt;/p&gt;&lt;p style=&quot;line-height: 115%; margin-top: 0pt; margin-bottom: 0pt; text-align: left; direction: ltr; unicode-bidi: embed; word-break: normal; font-size: 14px;&quot;&gt;&lt;span style=&quot;font-family: Arial;&quot;&gt;&lt;font style=&quot;font-size: 14px;&quot;&gt;Задание 1&lt;/font&gt;&lt;/span&gt;&lt;/p&gt;&lt;p style=&quot;line-height: 115%; margin-top: 0pt; margin-bottom: 0pt; text-align: left; direction: ltr; unicode-bidi: embed; word-break: normal; font-size: 14px;&quot;&gt;&lt;font style=&quot;font-size: 14px;&quot;&gt;&lt;span style=&quot;font-family: Arial;&quot;&gt;Введите длину&lt;/span&gt;&lt;span style=&quot;background-color: initial; font-family: Arial;&quot;&gt;&amp;nbsp;массива &lt;/span&gt;&lt;span style=&quot;background-color: initial; font-family: Arial;&quot;&gt;R&lt;/span&gt;&lt;span style=&quot;background-color: initial; font-family: Arial;&quot;&gt; от 1&lt;br&gt;до &amp;lt;&amp;lt;&lt;/span&gt;&lt;span style=&quot;background-color: initial; font-family: Arial;&quot;&gt;lmax&lt;/span&gt;&lt;span style=&quot;background-color: initial; font-family: Arial;&quot;&gt;&amp;gt;&amp;gt;:&lt;/span&gt;&lt;/font&gt;&lt;/p&gt;" style="text;html=1;align=center;verticalAlign=middle;whiteSpace=wrap;rounded=0;" vertex="1" parent="1">
          <mxGeometry x="80" y="20" width="210" height="110" as="geometry" />
        </mxCell>
        <mxCell id="Vo5U7oYjeB9SJfok_fx1-7" value="{ &amp;lt; n &amp;gt; }&amp;nbsp; &amp;nbsp;до n &amp;gt; 0 и n &amp;lt;= lmax" style="text;html=1;align=center;verticalAlign=middle;whiteSpace=wrap;rounded=0;" vertex="1" parent="1">
          <mxGeometry x="100" y="120" width="170" height="30" as="geometry" />
        </mxCell>
        <mxCell id="Vo5U7oYjeB9SJfok_fx1-11" value="&lt;font style=&quot;font-size: 20px;&quot;&gt;*&lt;/font&gt;" style="text;html=1;align=center;verticalAlign=middle;resizable=0;points=[];autosize=1;strokeColor=none;fillColor=none;" vertex="1" parent="1">
          <mxGeometry x="80" y="120" width="30" height="40" as="geometry" />
        </mxCell>
        <mxCell id="Vo5U7oYjeB9SJfok_fx1-12" value="&lt;p style=&quot;line-height: 115%; margin-top: 0pt; margin-bottom: 0pt; direction: ltr; unicode-bidi: embed; word-break: normal; font-size: 14px;&quot;&gt;&lt;font style=&quot;font-size: 14px;&quot;&gt;&lt;span style=&quot;font-family: Arial;&quot;&gt;Введите&lt;/span&gt;&lt;span style=&quot;font-family: Arial;&quot;&gt; x, h, a:&lt;/span&gt;&lt;/font&gt;&lt;/p&gt;&lt;p style=&quot;line-height: 115%; margin-top: 0pt; margin-bottom: 0pt; direction: ltr; unicode-bidi: embed; word-break: normal; font-size: 14px;&quot;&gt;&lt;span style=&quot;font-family: Arial;&quot;&gt;&lt;font style=&quot;font-size: 14px;&quot;&gt;&amp;lt;x&amp;gt; &amp;lt;h&amp;gt; &amp;lt;a&amp;gt;&lt;/font&gt;&lt;/span&gt;&lt;/p&gt;&lt;p style=&quot;line-height: 115%; margin-top: 0pt; margin-bottom: 0pt; direction: ltr; unicode-bidi: embed; word-break: normal; font-size: 14px;&quot;&gt;&lt;font style=&quot;font-size: 14px;&quot;&gt;&lt;span style=&quot;font-family: Arial;&quot;&gt;Массив&lt;br&gt;&lt;/span&gt;&lt;span style=&quot;font-family: Arial;&quot;&gt;R&lt;/span&gt;&lt;span style=&quot;font-family: Arial;&quot;&gt; из &amp;lt;&amp;lt;&lt;/span&gt;&lt;span style=&quot;font-family: Arial;&quot;&gt;n&lt;/span&gt;&lt;span style=&quot;font-family: Arial;&quot;&gt;&amp;gt;&amp;gt; элементов&lt;/span&gt;&lt;/font&gt;&lt;/p&gt;&lt;p style=&quot;line-height: 115%; margin-top: 0pt; margin-bottom: 0pt; direction: ltr; unicode-bidi: embed; word-break: normal; font-size: 14px;&quot;&gt;&lt;font style=&quot;font-size: 14px;&quot;&gt;&lt;span style=&quot;font-family: Arial;&quot;&gt;&amp;lt;&amp;lt;&lt;/span&gt;&lt;span style=&quot;font-family: Arial;&quot;&gt;R&lt;/span&gt;&lt;span style=&quot;font-family: Arial;&quot;&gt;[1]&amp;gt;&amp;gt; &amp;lt;&amp;lt;&lt;/span&gt;&lt;span style=&quot;font-family: Arial;&quot;&gt;R&lt;/span&gt;&lt;span style=&quot;font-family: Arial;&quot;&gt;[2]&amp;gt;&amp;gt;…&amp;lt;&amp;lt;&lt;/span&gt;&lt;span style=&quot;font-family: Arial;&quot;&gt;R&lt;/span&gt;&lt;span style=&quot;font-family: Arial;&quot;&gt;[&lt;/span&gt;&lt;span style=&quot;font-family: Arial;&quot;&gt;n&lt;/span&gt;&lt;span style=&quot;font-family: Arial;&quot;&gt;]&amp;gt;&amp;gt;&lt;/span&gt;&lt;/font&gt;&lt;/p&gt;" style="text;html=1;align=left;verticalAlign=middle;resizable=0;points=[];autosize=1;strokeColor=none;fillColor=none;" vertex="1" parent="1">
          <mxGeometry x="80" y="150" width="220" height="90" as="geometry" />
        </mxCell>
        <mxCell id="Vo5U7oYjeB9SJfok_fx1-14" value="&lt;p style=&quot;line-height: normal; margin-top: 0pt; margin-bottom: 0pt; direction: ltr; unicode-bidi: embed; word-break: normal;&quot;&gt;&lt;span style=&quot;font-family: Calibri;&quot;&gt;&lt;font style=&quot;font-size: 14px;&quot;&gt;Задание 2&lt;/font&gt;&lt;/span&gt;&lt;/p&gt;" style="rounded=0;whiteSpace=wrap;html=1;align=left;" vertex="1" parent="1">
          <mxGeometry x="80" y="250" width="210" height="20" as="geometry" />
        </mxCell>
        <mxCell id="Vo5U7oYjeB9SJfok_fx1-15" value="&lt;font style=&quot;font-size: 14px;&quot;&gt;при n1 = -1&lt;/font&gt;" style="text;html=1;align=center;verticalAlign=middle;resizable=0;points=[];autosize=1;strokeColor=none;fillColor=none;" vertex="1" parent="1">
          <mxGeometry x="75" y="270" width="90" height="30" as="geometry" />
        </mxCell>
        <mxCell id="Vo5U7oYjeB9SJfok_fx1-16" value="" style="strokeWidth=2;html=1;shape=mxgraph.flowchart.annotation_1;align=left;pointerEvents=1;" vertex="1" parent="1">
          <mxGeometry x="80" y="300" width="10" height="30" as="geometry" />
        </mxCell>
        <mxCell id="Vo5U7oYjeB9SJfok_fx1-17" value="Нет отрицательного элемента" style="text;html=1;align=center;verticalAlign=middle;resizable=0;points=[];autosize=1;strokeColor=none;fillColor=none;" vertex="1" parent="1">
          <mxGeometry x="80" y="300" width="190" height="30" as="geometry" />
        </mxCell>
        <mxCell id="Vo5U7oYjeB9SJfok_fx1-19" value="&lt;font style=&quot;font-size: 14px;&quot;&gt;Иначе&lt;/font&gt;" style="text;html=1;align=center;verticalAlign=middle;resizable=0;points=[];autosize=1;strokeColor=none;fillColor=none;" vertex="1" parent="1">
          <mxGeometry x="75" y="330" width="60" height="30" as="geometry" />
        </mxCell>
        <mxCell id="Vo5U7oYjeB9SJfok_fx1-20" value="&lt;p style=&quot;line-height: 115%; margin-top: 0pt; margin-bottom: 0pt; margin-left: 0in; direction: ltr; unicode-bidi: embed; word-break: normal; font-size: 14px;&quot;&gt;&lt;font style=&quot;font-size: 14px;&quot;&gt;&lt;span style=&quot;font-family: Arial;&quot;&gt;Массив&lt;br&gt;&lt;/span&gt;&lt;span style=&quot;font-family: Arial;&quot;&gt;R&lt;/span&gt;&lt;span style=&quot;font-family: Arial;&quot;&gt; из &amp;lt;&amp;lt;new_size&lt;/span&gt;&lt;span style=&quot;font-family: Arial;&quot;&gt;&amp;gt;&amp;gt; элементов&lt;/span&gt;&lt;/font&gt;&lt;/p&gt;&lt;p style=&quot;line-height: 115%; margin-top: 0pt; margin-bottom: 0pt; margin-left: 0in; direction: ltr; unicode-bidi: embed; word-break: normal; font-size: 14px;&quot;&gt;&lt;font style=&quot;font-size: 14px;&quot;&gt;&lt;span style=&quot;font-family: Arial;&quot;&gt;&amp;lt;&amp;lt;&lt;/span&gt;&lt;span style=&quot;font-family: Arial;&quot;&gt;R&lt;/span&gt;&lt;span style=&quot;font-family: Arial;&quot;&gt;[1]&amp;gt;&amp;gt; &amp;lt;&amp;lt;&lt;/span&gt;&lt;span style=&quot;font-family: Arial;&quot;&gt;R&lt;/span&gt;&lt;span style=&quot;font-family: Arial;&quot;&gt;[2]&amp;gt;&amp;gt;…&amp;lt;&amp;lt;&lt;/span&gt;&lt;span style=&quot;font-family: Arial;&quot;&gt;R&lt;/span&gt;&lt;span style=&quot;font-family: Arial;&quot;&gt;[&lt;/span&gt;&lt;span style=&quot;font-family: Arial;&quot;&gt;new_size&lt;/span&gt;&lt;span style=&quot;font-family: Arial;&quot;&gt;]&amp;gt;&amp;gt;&lt;/span&gt;&lt;/font&gt;&lt;/p&gt;" style="strokeWidth=2;html=1;shape=mxgraph.flowchart.annotation_1;align=left;pointerEvents=1;movable=1;resizable=1;rotatable=1;deletable=1;editable=1;locked=0;connectable=1;" vertex="1" parent="1">
          <mxGeometry x="80" y="360" width="15" height="80" as="geometry" />
        </mxCell>
        <mxCell id="Vo5U7oYjeB9SJfok_fx1-22" value="&lt;p style=&quot;line-height: normal; margin-top: 0pt; margin-bottom: 0pt; direction: ltr; unicode-bidi: embed; word-break: normal;&quot;&gt;&lt;span style=&quot;font-family: Calibri;&quot;&gt;&lt;font style=&quot;font-size: 14px;&quot;&gt;Задание 3&lt;/font&gt;&lt;/span&gt;&lt;/p&gt;" style="rounded=0;whiteSpace=wrap;html=1;align=left;" vertex="1" parent="1">
          <mxGeometry x="80" y="450" width="210" height="20" as="geometry" />
        </mxCell>
        <mxCell id="Vo5U7oYjeB9SJfok_fx1-25" value="&lt;font style=&quot;font-size: 14px;&quot;&gt;При n &amp;lt;= 0&lt;/font&gt;" style="text;html=1;align=center;verticalAlign=middle;resizable=0;points=[];autosize=1;strokeColor=none;fillColor=none;" vertex="1" parent="1">
          <mxGeometry x="75" y="470" width="90" height="30" as="geometry" />
        </mxCell>
        <mxCell id="Vo5U7oYjeB9SJfok_fx1-27" value="&lt;span style=&quot;font-size: 14px;&quot;&gt;&lt;font face=&quot;Helvetica&quot;&gt;Недостаточно элементов для вычисления&lt;/font&gt;&lt;/span&gt;&lt;div&gt;&lt;span style=&quot;font-size: 14px;&quot;&gt;&lt;font face=&quot;Helvetica&quot;&gt;&amp;nbsp;среднего значения&lt;/font&gt;&lt;/span&gt;&lt;/div&gt;" style="text;html=1;align=left;verticalAlign=middle;resizable=0;points=[];autosize=1;strokeColor=none;fillColor=none;" vertex="1" parent="1">
          <mxGeometry x="100" y="500" width="300" height="50" as="geometry" />
        </mxCell>
        <mxCell id="Vo5U7oYjeB9SJfok_fx1-30" value="&lt;font style=&quot;font-size: 14px;&quot;&gt;При nmax - nmin - 1 == 1&amp;nbsp;&lt;/font&gt;" style="text;html=1;align=center;verticalAlign=middle;resizable=0;points=[];autosize=1;strokeColor=none;fillColor=none;" vertex="1" parent="1">
          <mxGeometry x="70" y="555" width="190" height="30" as="geometry" />
        </mxCell>
        <mxCell id="Vo5U7oYjeB9SJfok_fx1-31" value="" style="strokeWidth=2;html=1;shape=mxgraph.flowchart.annotation_1;align=left;pointerEvents=1;" vertex="1" parent="1">
          <mxGeometry x="82.5" y="495" width="30" height="60" as="geometry" />
        </mxCell>
        <mxCell id="Vo5U7oYjeB9SJfok_fx1-32" value="&lt;font style=&quot;font-size: 14px;&quot;&gt;Нет среднего значения&lt;/font&gt;" style="whiteSpace=wrap;html=1;align=left;" vertex="1" parent="1">
          <mxGeometry x="95" y="587.5" width="240" height="30" as="geometry" />
        </mxCell>
        <mxCell id="Vo5U7oYjeB9SJfok_fx1-33" value="" style="strokeWidth=2;html=1;shape=mxgraph.flowchart.annotation_1;align=left;pointerEvents=1;" vertex="1" parent="1">
          <mxGeometry x="82.5" y="580" width="10" height="45" as="geometry" />
        </mxCell>
        <mxCell id="Vo5U7oYjeB9SJfok_fx1-34" value="&lt;font style=&quot;font-size: 14px;&quot;&gt;Иначе&lt;/font&gt;" style="text;html=1;align=center;verticalAlign=middle;resizable=0;points=[];autosize=1;strokeColor=none;fillColor=none;" vertex="1" parent="1">
          <mxGeometry x="82.5" y="625" width="60" height="30" as="geometry" />
        </mxCell>
        <mxCell id="Vo5U7oYjeB9SJfok_fx1-35" value="&lt;font style=&quot;font-size: 14px;&quot;&gt;sr = &amp;lt;&amp;lt; sr &amp;gt;&amp;gt;&lt;/font&gt;" style="rounded=0;whiteSpace=wrap;html=1;align=left;" vertex="1" parent="1">
          <mxGeometry x="90" y="660" width="120" height="20" as="geometry" />
        </mxCell>
        <mxCell id="Vo5U7oYjeB9SJfok_fx1-36" value="" style="strokeWidth=2;html=1;shape=mxgraph.flowchart.annotation_1;align=left;pointerEvents=1;" vertex="1" parent="1">
          <mxGeometry x="80" y="650" width="20" height="40" as="geometry" />
        </mxCell>
      </root>
    </mxGraphModel>
  </diagram>
</mxfile>
